<svg width="100" height="125" viewBox="0 0 100 125" fill="none" xmlns="http://www.w3.org/2000/svg">
<path d="M91.8 7.89844H8.2C5.1 7.89844 2.5 10.4984 2.5 13.5984V86.2984C2.5 89.3984 5.1 91.9984 8.2 91.9984H91.8C95 91.9984 97.5 89.3984 97.5 86.2984V13.5984C97.5 10.4984 94.9 7.89844 91.8 7.89844ZM31.1 15.1984H69C69.8 15.1984 70.5 15.8984 70.5 16.6984C70.5 17.4984 69.8 18.1984 69 18.1984H31.1C30.3 18.1984 29.6 17.4984 29.6 16.6984C29.6 15.8984 30.2 15.1984 31.1 15.1984ZM22.2 15.2984C23 15.2984 23.7 15.9984 23.7 16.7984C23.7 17.5984 23 18.2984 22.2 18.2984C21.4 18.2984 20.7 17.5984 20.7 16.7984C20.7 15.8984 21.4 15.2984 22.2 15.2984ZM17.2 15.2984C18 15.2984 18.7 15.9984 18.7 16.7984C18.7 17.5984 18 18.2984 17.2 18.2984C16.4 18.2984 15.7 17.5984 15.7 16.7984C15.8 15.8984 16.4 15.2984 17.2 15.2984ZM12.2 15.2984C13 15.2984 13.7 15.9984 13.7 16.7984C13.7 17.5984 13 18.2984 12.2 18.2984C11.4 18.2984 10.7 17.5984 10.7 16.7984C10.8 15.8984 11.4 15.2984 12.2 15.2984ZM92 83.8984C92 85.3984 90.8 86.5984 89.3 86.5984H10.7C9.2 86.5984 8 85.3984 8 83.8984V25.1984H92V83.8984Z" fill="black"/>
<path d="M28.9 45.8H39.9C40.7 45.8 41.3 45.2 41.3 44.4V33.4C41.3 32.6 40.7 32 39.9 32H28.9C28.1 32 27.5 32.6 27.5 33.4V44.4C27.5 45.2 28.1 45.8 28.9 45.8Z" fill="black"/>
<path d="M28.9 62.8H56.9C57.7 62.8 58.3 62.2 58.3 61.4V50.4C58.3 49.6 57.7 49 56.9 49H28.9C28.1 49 27.5 49.6 27.5 50.4V61.4C27.5 62.2 28.1 62.8 28.9 62.8Z" fill="black"/>
<path d="M45.9 45.8H56.9C57.7 45.8 58.3 45.2 58.3 44.4V33.4C58.3 32.6 57.7 32 56.9 32H45.9C45.1 32 44.5 32.6 44.5 33.4V44.4C44.5 45.2 45.2 45.8 45.9 45.8Z" fill="black"/>
<path d="M62.9 45.8H73.9C74.7 45.8 75.3 45.2 75.3 44.4V33.4C75.3 32.6 74.7 32 73.9 32H62.9C62.1 32 61.5 32.6 61.5 33.4V44.4C61.6 45.2 62.2 45.8 62.9 45.8Z" fill="black"/>
<path d="M28.9 79.8H39.9C40.7 79.8 41.3 79.2 41.3 78.4V67.4C41.3 66.6 40.7 66 39.9 66H28.9C28.1 66 27.5 66.6 27.5 67.4V78.4C27.5 79.2 28.1 79.8 28.9 79.8Z" fill="black"/>
<path d="M56.9 66H45.9C45.1 66 44.5 66.6 44.5 67.4V78.4C44.5 79.2 45.1 79.8 45.9 79.8H56.9C57.7 79.8 58.3 79.2 58.3 78.4V67.4C58.3 66.7 57.7 66 56.9 66Z" fill="black"/>
<path d="M62.9 79.8H73.9C74.7 79.8 75.3 79.2 75.3 78.4V50.4C75.3 49.6 74.7 49 73.9 49H62.9C62.1 49 61.5 49.6 61.5 50.4V78.4C61.6 79.2 62.2 79.8 62.9 79.8Z" fill="black"/>
</svg>
