<svg width="92" height="56" viewBox="0 0 92 56" fill="none" xmlns="http://www.w3.org/2000/svg">
<path fill-rule="evenodd" clip-rule="evenodd" d="M23.0969 0.398438H68.8969C72.3969 0.398438 75.4969 1.89844 78.0969 4.29844C82.6969 8.49844 85.9969 15.6984 88.2969 23.1984C90.4969 30.6984 91.5969 38.4984 91.5969 44.1984C91.5969 48.3984 90.8969 51.6984 89.5969 53.0984L89.4969 53.1984C89.3969 53.2984 89.1969 53.3984 89.0969 53.5984C87.6969 54.7984 84.9969 55.4984 82.4969 55.4984C79.8969 55.5984 77.2969 54.9984 75.8969 53.6984C75.7969 53.5984 75.5969 53.3984 75.4969 53.2984L63.4969 39.0984C63.2969 38.8984 63.0969 38.6984 62.7969 38.5984C62.4969 38.4984 62.0969 38.3984 61.5969 38.3984H30.3969C29.8969 38.3984 29.4969 38.4984 29.1969 38.5984C28.9969 38.6984 28.6969 38.8984 28.4969 39.0984L16.4969 53.2984C16.3969 53.3984 16.2969 53.5984 16.0969 53.6984C14.6969 54.9984 11.9969 55.5984 9.39687 55.4984C6.89687 55.3984 4.19688 54.7984 2.79688 53.5984C2.69688 53.4984 2.49688 53.2984 2.39688 53.1984L2.29688 53.0984C0.996875 51.5984 0.296875 48.3984 0.296875 44.1984C0.296875 38.4984 1.39687 30.6984 3.59687 23.1984C5.79688 15.5984 9.19688 8.39844 13.7969 4.19844C16.4969 1.89844 19.5969 0.398438 23.0969 0.398438ZM63.3969 9.79844C65.1969 9.79844 66.6969 11.1984 66.6969 12.9984C66.6969 14.7984 65.1969 16.1984 63.3969 16.1984C61.5969 16.1984 60.1969 14.7984 60.1969 12.9984C60.1969 11.1984 61.5969 9.79844 63.3969 9.79844ZM57.1969 15.8984C58.9969 15.8984 60.3969 17.2984 60.3969 19.0984C60.3969 20.8984 58.9969 22.2984 57.1969 22.2984C55.3969 22.2984 53.8969 20.8984 53.8969 19.0984C53.9969 17.3984 55.4969 15.8984 57.1969 15.8984ZM69.4969 15.8984C71.2969 15.8984 72.6969 17.2984 72.6969 19.0984C72.6969 20.8984 71.2969 22.2984 69.4969 22.2984C67.6969 22.2984 66.2969 20.8984 66.2969 19.0984C66.2969 17.3984 67.6969 15.8984 69.4969 15.8984ZM63.3969 22.0984C65.1969 22.0984 66.6969 23.4984 66.6969 25.2984C66.6969 27.0984 65.1969 28.4984 63.3969 28.4984C61.5969 28.4984 60.1969 27.0984 60.1969 25.2984C60.1969 23.4984 61.5969 22.0984 63.3969 22.0984ZM35.2969 16.7984C36.5969 16.7984 37.5969 17.7984 37.5969 18.9984C37.5969 20.2984 36.5969 21.2984 35.2969 21.2984L30.2969 21.3984L30.3969 26.3984C30.3969 27.5984 29.3969 28.6984 28.1969 28.6984C26.9969 28.6984 25.8969 27.6984 25.8969 26.4984L25.7969 21.4984L20.7969 21.5984C19.4969 21.5984 18.4969 20.5984 18.4969 19.3984C18.4969 18.0984 19.4969 17.0984 20.7969 17.0984L25.7969 16.9984L25.6969 11.9984C25.6969 10.7984 26.6969 9.69844 27.8969 9.69844C29.0969 9.69844 30.1969 10.6984 30.1969 11.8984L30.2969 16.8984L35.2969 16.7984Z" fill="white"/>
</svg>
