<svg width="80" height="98" viewBox="0 0 80 98" fill="none" xmlns="http://www.w3.org/2000/svg">
<path d="M53.6039 61.2921C53.0019 60.7241 52.0529 60.7531 51.4839 61.3531L44.7189 68.5171C44.1739 69.0951 44.1729 69.9991 44.7189 70.5781L51.4839 77.7461C51.7789 78.0591 52.1759 78.2171 52.5749 78.2171C52.9439 78.2171 53.3149 78.0801 53.6039 77.8071C54.2069 77.2391 54.2349 76.2891 53.6659 75.6881L47.8739 69.5491L53.6659 63.4141C54.2329 62.8111 54.2069 61.8621 53.6039 61.2921ZM72.4839 68.5221L65.7189 61.3541C65.1519 60.7521 64.2019 60.7231 63.5989 61.2911C62.9959 61.8591 62.9679 62.8091 63.5369 63.4121L69.3299 69.5511L63.5369 75.6841C62.9689 76.2881 62.9949 77.2371 63.5989 77.8051C63.8879 78.0781 64.2589 78.2151 64.6279 78.2151C65.0259 78.2151 65.4229 78.0571 65.7189 77.7441L72.4839 70.5801C73.0299 70.0031 73.0299 69.1011 72.4839 68.5221ZM60.6689 61.0181C59.8589 60.8251 59.0529 61.3191 58.8569 62.1231L55.4279 76.2681C55.2339 77.0731 55.7279 77.8831 56.5319 78.0791C56.6509 78.1081 56.7699 78.1221 56.8859 78.1221C57.5629 78.1221 58.1759 77.6611 58.3429 76.9761L61.7719 62.8311C61.9689 62.0241 61.4749 61.2141 60.6689 61.0181ZM58.6029 48.6141C57.4629 48.6141 56.3519 48.7301 55.2599 48.9071V30.2681C56.6379 30.2671 57.7589 29.1471 57.7589 27.7681V21.2051C57.7589 19.8271 56.6379 18.7051 55.2599 18.7051V7.91406C55.2599 3.77806 51.8959 0.414062 47.7599 0.414062H7.96094C3.82494 0.414062 0.460938 3.77806 0.460938 7.91406V90.0811C0.460938 94.2161 3.82494 97.5811 7.96094 97.5811H47.7599C51.8579 97.5811 55.1939 94.2761 55.2539 90.1921C56.3479 90.3701 57.4609 90.4871 58.6029 90.4871C70.1479 90.4871 79.5399 81.0941 79.5399 69.5511C79.5389 58.0071 70.1469 48.6141 58.6029 48.6141ZM52.2599 90.0811C52.2599 92.5611 50.2409 94.5811 47.7599 94.5811H7.96094C5.47994 94.5811 3.46094 92.5611 3.46094 90.0811V16.8311H44.4969C45.3259 16.8311 45.9969 16.1601 45.9969 15.3311C45.9969 14.5021 45.3259 13.8311 44.4969 13.8311H3.46094V7.91406C3.46094 5.43306 5.47994 3.41406 7.96094 3.41406H47.7599C50.2409 3.41406 52.2599 5.43306 52.2599 7.91406V49.6031C43.8069 52.2961 37.6649 60.2181 37.6649 69.5521C37.6649 78.8841 43.8069 86.8061 52.2599 89.4991V90.0811ZM58.6029 87.4871C48.7119 87.4871 40.6649 79.4401 40.6649 69.5511C40.6649 59.6601 48.7119 51.6131 58.6029 51.6131C68.4929 51.6131 76.5399 59.6601 76.5399 69.5511C76.5389 79.4401 68.4919 87.4871 58.6029 87.4871ZM29.1099 80.7181C25.9359 80.7181 23.3539 83.3001 23.3539 86.4741C23.3539 89.6481 25.9359 92.2301 29.1099 92.2301C32.2839 92.2301 34.8659 89.6481 34.8659 86.4741C34.8659 83.3001 32.2839 80.7181 29.1099 80.7181ZM29.1099 89.2291C27.5899 89.2291 26.3539 87.9931 26.3539 86.4731C26.3539 84.9531 27.5899 83.7171 29.1099 83.7171C30.6299 83.7171 31.8659 84.9531 31.8659 86.4731C31.8659 87.9931 30.6299 89.2291 29.1099 89.2291ZM37.7589 6.20506C36.4839 6.20506 35.4459 7.24306 35.4459 8.51806C35.4459 9.79306 36.4839 10.8311 37.7589 10.8311C39.0339 10.8311 40.0719 9.79306 40.0719 8.51806C40.0719 7.24306 39.0339 6.20506 37.7589 6.20506ZM37.7589 9.20506C37.3799 9.20506 37.0709 8.89606 37.0709 8.51706C37.0709 8.13806 37.3799 7.82906 37.7589 7.82906C38.1379 7.82906 38.4469 8.13806 38.4469 8.51706C38.4469 8.89606 38.1379 9.20506 37.7589 9.20506Z" fill="white"/>
</svg>
