<svg width="24" height="30" viewBox="0 0 24 30" fill="none" xmlns="http://www.w3.org/2000/svg">
<g clip-path="url(#clip0_682_1212)">
<path fill-rule="evenodd" clip-rule="evenodd" d="M5 2C3.34315 2 2 3.34315 2 5V19C2 20.6569 3.34315 22 5 22H9.6C10.3732 22 11 21.3732 11 20.6C11 15.8504 14.8504 12 19.6 12H20.56C21.3553 12 22 11.3553 22 10.56V5C22 3.34315 20.6569 2 19 2H5ZM7 6C7 6.55228 6.55228 7 6 7C5.44772 7 5 6.55228 5 6C5 5.44772 5.44772 5 6 5C6.55228 5 7 5.44772 7 6ZM9 7C9.55228 7 10 6.55228 10 6C10 5.44772 9.55228 5 9 5C8.44772 5 8 5.44772 8 6C8 6.55228 8.44772 7 9 7ZM13 6C13 6.55228 12.5523 7 12 7C11.4477 7 11 6.55228 11 6C11 5.44772 11.4477 5 12 5C12.5523 5 13 5.44772 13 6Z" fill="white"/>
<path d="M16.7071 16.2929C17.0976 16.6834 17.0976 17.3166 16.7071 17.7071L15.4142 19L16.7071 20.2929C17.0976 20.6834 17.0976 21.3166 16.7071 21.7071C16.3166 22.0976 15.6834 22.0976 15.2929 21.7071L13.2929 19.7071C12.9024 19.3166 12.9024 18.6834 13.2929 18.2929L15.2929 16.2929C15.6834 15.9024 16.3166 15.9024 16.7071 16.2929Z" fill="white"/>
<path d="M18.2929 16.2929C17.9024 16.6834 17.9024 17.3166 18.2929 17.7071L19.5858 19L18.2929 20.2929C17.9024 20.6834 17.9024 21.3166 18.2929 21.7071C18.6834 22.0976 19.3166 22.0976 19.7071 21.7071L21.7071 19.7071C22.0976 19.3166 22.0976 18.6834 21.7071 18.2929L19.7071 16.2929C19.3166 15.9024 18.6834 15.9024 18.2929 16.2929Z" fill="white"/>
</g>
<defs>
<clipPath id="clip0_682_1212">
<rect width="24" height="30" fill="white"/>
</clipPath>
</defs>
</svg>
